<svg width="34" height="67" viewBox="0 0 34 67" fill="none" xmlns="http://www.w3.org/2000/svg">
<g clip-path="url(#clip0)">
<path d="M34 50.3003C34 59.5556 26.384 67.0671 17 67.0671C7.616 67.0671 0 59.5556 0 50.3003C0 33.5335 17 0 17 0C17 0 34 33.5335 34 50.3003Z" fill="#a3a0a0"/>
<path d="M31.076 46.4775C31.144 49.026 30.872 51.6417 30.056 54.1231C29.24 56.6046 27.88 58.8849 25.976 60.6286C24.888 61.6347 23.528 62.5065 22.1 62.8419C20.604 63.2443 18.972 63.1101 17.68 62.3053C17.204 62.0371 16.796 61.6346 16.524 61.1652C16.252 60.6286 16.184 60.025 16.252 59.4214C16.388 57.946 17.136 56.6046 18.224 55.6657C19.312 54.7938 20.672 54.3914 21.964 53.7878C25.5 52.1782 28.288 49.0931 29.716 45.5386C30.124 44.4655 30.396 43.3924 30.532 42.3193C31.008 43.5936 31.076 45.1362 31.076 46.4775Z" fill="white"/>
</g>
<defs>
<clipPath id="clip0">
<rect width="34" height="67" fill="white"/>
</clipPath>
</defs>
</svg>
