<svg xmlns="http://www.w3.org/2000/svg" viewBox="0 0 486.39 466.46"><defs><style>.cls-1{fill:#f47f73;}.cls-2{fill:#ffc5ad;}.cls-3{fill:#231f20;}.cls-4{fill:#e5c5a7;}.cls-5,.cls-8{fill:#f1f2f2;}.cls-5{opacity:0.54;}.cls-6{opacity:0.92;}.cls-10,.cls-7{opacity:0.58;}.cls-9{opacity:0.91;}.cls-10,.cls-12{fill:#88c4ea;}.cls-11{fill:#452b28;}.cls-12{opacity:0.69;}.cls-13{opacity:0.29;}.cls-14{fill:#a3aab3;}.cls-15{fill:#2e2e2e;opacity:0.57;}.cls-16{fill:#3f4249;}.cls-17{fill:#e5dad0;}</style></defs><g id="Слой_3" data-name="Слой 3"><path class="cls-1" d="M180.49,367.25c47.15,111.45,35.63,151.06,143.09,132.24S566,326.54,514,217.25c-39-82-135-186-239-157C142.67,97.15,136.49,263.25,180.49,367.25Z" transform="translate(-66.12 -55.29)"/><path class="cls-2" d="M112,434.75c-7.08-42.43,19.83-94.3,160.91-41.89,132,49,177.89-4.09,207.89,17.16S430.6,506.35,350.2,503.34C230.6,498.86,132.93,560.25,112,434.75Z" transform="translate(-66.12 -55.29)"/><path class="cls-2" d="M69,257.21c9-21.92,78.88-26.95,61.09,22.33-7.76,21.52-11.83,34.14-11.83,53.83C118.22,370.85,51.8,299,69,257.21Z" transform="translate(-66.12 -55.29)"/><path class="cls-2" d="M116.78,187c-4.45,8.51-5.4,16.8-2.13,18.5s12.46-1.52,16.9-10,2.46-19.08-.81-20.79S121.22,178.51,116.78,187Z" transform="translate(-66.12 -55.29)"/><path class="cls-3" d="M525.71,205.3a138.29,138.29,0,0,1,10.23,26.06c1.3,4.5,2.36,9.06,3.22,13.66s1.53,9.24,1.93,13.91a122,122,0,0,1,.45,14.05,113.08,113.08,0,0,1-1.14,14,103.45,103.45,0,0,1-7.65,26.93l-.47-.19a117.29,117.29,0,0,0,4.15-13.28l.44-1.68.36-1.7.72-3.4c.35-2.29.8-4.56,1-6.87a128.36,128.36,0,0,0,.47-27.71,158.77,158.77,0,0,0-4.83-27.35c-1.18-4.49-2.57-8.92-4.12-13.3a133.43,133.43,0,0,0-5.24-12.9Z" transform="translate(-66.12 -55.29)"/><path class="cls-3" d="M550.69,260.63a91,91,0,0,1,1.67,13.26,110.48,110.48,0,0,1-.13,13.37l-.31,3.33-.47,3.32c-.13,1.11-.36,2.2-.57,3.3s-.39,2.19-.71,3.27a65.28,65.28,0,0,1-4.45,12.6l-.46-.21,1.15-3.1c.19-.52.4-1,.56-1.56l.47-1.58c.3-1.07.67-2.1.92-3.18l.75-3.21A94.65,94.65,0,0,0,551,287.16a126.89,126.89,0,0,0,.29-13.23c-.07-2.2-.18-4.41-.36-6.61s-.4-4.41-.68-6.59Z" transform="translate(-66.12 -55.29)"/><path class="cls-3" d="M95.75,426.76A118.73,118.73,0,0,0,97,442.4a126.9,126.9,0,0,0,3.13,15.35,116.76,116.76,0,0,0,5,14.81,92.19,92.19,0,0,0,7.25,13.81,76.51,76.51,0,0,0,21.38,22.41,75,75,0,0,0,13.67,7.5l1.8.78.9.39.92.33,3.7,1.29c1.22.48,2.5.77,3.76,1.13l3.78,1.06-.1.48A81.6,81.6,0,0,1,133,510a75.92,75.92,0,0,1-22-22.67A98.23,98.23,0,0,1,98.7,458.12a114.58,114.58,0,0,1-3.45-31.38Z" transform="translate(-66.12 -55.29)"/></g><g id="Слой_4" data-name="Слой 4"><path class="cls-4" d="M477.53,157.62c-1.23.3-2.52.54-3.89.74-26.88,3.88-41.62,27.35-49.1,35.43s-11.63,6.78-17.08.86,0-24.74,12.79-43.17c7.55-10.84,22.46-18.13,33.45-22.29A351.32,351.32,0,0,1,477.53,157.62Z" transform="translate(-66.12 -55.29)"/><ellipse class="cls-5" cx="224.98" cy="253.68" rx="85.5" ry="26.95"/><g class="cls-6"><g class="cls-7"><path class="cls-8" d="M291.1,334c-43.74,0-79.78-10-84.86-22.86l29.9,146.7c0,9.22,24.61,16.69,55,16.69s55-7.47,55-16.69L376,311.11C370.88,324,334.84,334,291.1,334Z" transform="translate(-66.12 -55.29)"/></g><g class="cls-7"><polygon class="cls-8" points="310.48 252.71 310.48 252.71 310.48 252.71 310.48 252.71"/></g></g><g class="cls-9"><path class="cls-10" d="M356.67,369.84,355,378.19l-14.77,72.46c0,8.24-22,14.91-49.05,14.91s-49.06-6.67-49.06-14.91l-13.63-66.88-1.13-5.53C234.94,357,353.1,336,356.67,369.84Z" transform="translate(-66.12 -55.29)"/><polygon class="cls-10" points="301.33 261.65 301.33 261.65 301.33 261.65 301.33 261.65"/></g><path class="cls-11" d="M281.6,323.75s-11.28,3.17-5.62,17.5,29.54,27.67,23.1,43.34S265,419.92,281,427.25s30.34-43.63,22.34-54.81c-7.85-11-36.88-34.44-21.34-48.15C282.29,324,281.35,324.1,281.6,323.75Z" transform="translate(-66.12 -55.29)"/><path class="cls-12" d="M356.35,375.18a7.76,7.76,0,0,1-1.39,3c-13.52,18.63-113.13,18.39-126.51,5.58a4.46,4.46,0,0,1-1.43-2.39,6,6,0,0,1,.3-3.14C234.94,357,353.1,336,356.67,369.84A17.63,17.63,0,0,1,356.35,375.18Z" transform="translate(-66.12 -55.29)"/><path class="cls-8" d="M414.32,386.36" transform="translate(-66.12 -55.29)"/><g class="cls-13"><path class="cls-8" d="M319.16,461.82a1.34,1.34,0,0,0,1.41,1.55c4-.26,13.67-1.29,14.61-5,1.18-4.73,32.5-122,26.09-119.22-10.77,4.6-25,4.93-23.77,4.63Z" transform="translate(-66.12 -55.29)"/><path class="cls-8" d="M297.12,348,333,344.89S317.41,463.24,315,464.38c-3.13,1.49-19.5,2.5-20.29,0S297.12,348,297.12,348Z" transform="translate(-66.12 -55.29)"/><path class="cls-8" d="M253,344.89s35.06,2.76,37,2.76,5.56,113.05-1.13,115.81-19.36,3.15-21.72-2S253,344.89,253,344.89Z" transform="translate(-66.12 -55.29)"/><path class="cls-8" d="M223.46,337.34s11.18,119.89,24.17,121.86l13.94,3.88A1.86,1.86,0,0,0,263.7,461c-2.15-16.06-14.11-105.57-15.43-114.14C247.48,341.74,223.46,337.34,223.46,337.34Z" transform="translate(-66.12 -55.29)"/></g><path class="cls-14" d="M413.71,170.14c-1.57,4-12.36,18.17-12.8,18.74l-.17-.25a40,40,0,0,0-9.8-10.32,54.4,54.4,0,0,0-5.24-3.51l-.22-.13-.23-.12c-1.08-.63-2.16-1.18-3.23-1.67l-.86-.38-.42-.18-.43-.17-.42-.16-.34-.13-.45-.16c-.29-.11-.59-.21-.89-.3.86-1.2,11.3-15.71,14.5-17.89s10-2.81,15.44.72S415.32,166.09,413.71,170.14Z" transform="translate(-66.12 -55.29)"/><path class="cls-15" d="M346.12,231.06a8.6,8.6,0,0,0,.85,4.76l-19.17,23.8-.84-2.49Z" transform="translate(-66.12 -55.29)"/><path class="cls-16" d="M404.07,193l.15.38c.13.33.26.67.37,1l.12.4a14.53,14.53,0,0,1,.45,1.75c0,.16,0,.31.08.47a13.57,13.57,0,0,1,.18,2.19c0,.19,0,.38,0,.57a11.76,11.76,0,0,1-.4,2.57,14.11,14.11,0,0,1-.52,1.55h0v0c-.15.37-.31.76-.49,1.15h0c-3.52,7.65-13.05,19.2-13.28,19.49l0,0s-.22-.84-.73-2.22c0-.11-.08-.23-.13-.35-.22-.58-.5-1.25-.83-2q-.08-.15-.15-.33c-.23-.48-.47-1-.75-1.54l-.16-.31c-.24-.46-.49-.93-.76-1.41l-.18-.3h0q-.24-.44-.51-.87l-.18-.3h0c-.66-1.08-1.41-2.21-2.27-3.38l-.2-.27c-.31-.42-.64-.84-1-1.26l-.2-.27-1-1.16-.22-.25h0q-.3-.36-.63-.72l-.22-.24c-.33-.36-.67-.73-1-1.09l-.23-.24a56.34,56.34,0,0,0-5.33-4.76l-.26-.2-1.24-.94h0l-.26-.19-1.22-.85-.26-.18c-1.11-.75-2.2-1.44-3.29-2.07l-.28-.16c-.45-.26-.91-.52-1.36-.76l-.28-.15-1.35-.7L364,195l-.08,0a52.93,52.93,0,0,0-7-2.84,47.54,47.54,0,0,0-7.33-1.79c-1.51-.23-2.38-.27-2.38-.27s11.59-17.59,18.44-19.74c.32-.1.64-.19,1-.27a20.94,20.94,0,0,1,9.09,0,28.85,28.85,0,0,1,3.06.8s1.14.32,3.17,1.2l.33.15c.42.18.87.4,1.35.63l.32.16,1.36.72.09.05.2.11h0l.2.12.22.12.23.14c.87.51,1.74,1.07,2.61,1.67l.29.2c.39.28.78.56,1.17.86l.28.21c.4.3.8.62,1.2.94l.27.23h0c1.58,1.31,3.05,2.65,4.39,4l.82.84.24.26c.34.36.67.73,1,1.09l.24.27.6.71.23.28c.31.4.62.79.91,1.18l.22.3.55.77.16.27h0l.18.27.21.31A26.62,26.62,0,0,1,404.07,193Z" transform="translate(-66.12 -55.29)"/><path class="cls-14" d="M383.73,210.16a45.16,45.16,0,0,0-7.14-7.88,47.5,47.5,0,0,0-6.42-4.7,54,54,0,0,0-22.73-7.65,11.89,11.89,0,0,0-7.54,2.33c-3.18,2.57-7.56,9-7.83,9.44l18.78,15.86,29.91,25.28.77.66s1.27-1.16,2.89-2.82c2.15-2.22,4.92-5.33,6.09-7.72,1.77-3.65.18-8.44.18-8.44A49,49,0,0,0,383.73,210.16Z" transform="translate(-66.12 -55.29)"/><path class="cls-16" d="M382.21,242.33c-4.2,6.54-15.67,6.06-27.58-.42a59.93,59.93,0,0,1-7.36-4.76,60.89,60.89,0,0,1-7.83-7c-8.93-9.58-12.82-20.43-8.8-26.7a8.77,8.77,0,0,1,1.43-1.71h0c6.15-5.75,20.43-3,33.52,6.89C379.82,219.34,387.27,234.44,382.21,242.33Z" transform="translate(-66.12 -55.29)"/><path class="cls-8" d="M359.38,235.46s-41,55.68-43.94,59.33-12,11.7-15.7,14.65-13.52,15.44-16.16,16.35-4.7-1.75-5.23-4.13,7.3-13.41,11.06-21,5.82-12.66,9.88-18.28,44.51-57.94,44.51-57.94a15.27,15.27,0,0,0-.34,2.24,8.6,8.6,0,0,0,.85,4.76C347.66,237.71,359.38,235.46,359.38,235.46Z" transform="translate(-66.12 -55.29)"/><path class="cls-11" d="M299,285.84c-3.3,4.57-5,8.73-8,14.88s-12.66,19.67-12.23,21.6,2.1,4.1,4.25,3.36,13.41-15.43,16.39-17.83,10.38-9,12.79-11.93c1.53-1.9,12.38-17.7,20-28.91a2.54,2.54,0,0,0-3.55-3.52C317.24,271.39,301.08,282.91,299,285.84Z" transform="translate(-66.12 -55.29)"/><path class="cls-4" d="M435.69,111.35c-4.88,3-9.55,4.85-11.23,7.74-2.75,4.72-16.76,21.8-17.69,22.75s-7.83,10.48-13.3,14.91-11.82,14.1-15.57,12.54c0,0-4.75-.91-5.51-3.83-.46-1.79-.64-2.63-.81-3.22a6.32,6.32,0,0,0-.35-1c-.39-.87,4.72-10.46,5.21-12.11.1-.33.58-1.37,1.32-2.88l0,0,.07-.13c3-6.17,10.1-19.77,13-26,3.61-7.85,4.76-17.14,12.55-25.27,1.44-1.5,3.23-3.34,5.25-5.29A274.6,274.6,0,0,1,435.69,111.35Z" transform="translate(-66.12 -55.29)"/><path class="cls-17" d="M371.58,162.24s10.52-7.47,9.44-13.9-3.24-2.1-3.24-2.1S368.74,160.61,371.58,162.24Z" transform="translate(-66.12 -55.29)"/></g></svg>