<svg width="83" height="29" viewBox="0 0 83 29" fill="none" xmlns="http://www.w3.org/2000/svg">
<path d="M13.0266 5.15193C8.82676 6.60318 4.62693 8.4898 1.77959 11.9002C0.854205 12.9161 0.14237 14.1497 2.90014e-06 15.5283C-0.284731 18.9388 3.34563 21.1882 6.47771 22.3492C27.1209 30.2585 50.4691 30.4762 71.1835 22.9297C74.6003 21.6961 78.0883 20.1723 80.7221 17.4875C81.7187 16.4717 82.6441 15.1655 82.8576 13.7143C84.566 3.77324 68.1226 3.04762 61.9297 1.81406C51.5369 -0.217686 40.8594 -0.580498 30.3954 0.943312C24.4871 1.7415 18.6501 3.19274 13.0266 5.15193Z" fill="#a3a0a0"/>
<path d="M47.2659 2.46709C46.4829 2.46709 45.6286 2.53966 44.988 2.90247C44.2762 3.26528 43.7067 4.06347 43.9202 4.86165C44.0626 5.44215 44.4897 5.80496 44.9168 6.16777C48.1201 8.78002 52.3911 9.50564 56.4485 9.72333C60.506 9.94102 64.7058 9.65077 68.6921 10.6666C71.3259 11.3197 74.1021 12.5533 76.7359 11.6825C77.7324 11.3197 78.6578 10.6666 78.8714 9.65077C80.0815 4.28115 51.0386 2.39453 47.2659 2.46709Z" fill="white"/>
</svg>
