<svg width="38" height="38" viewBox="0 0 38 38" fill="none" xmlns="http://www.w3.org/2000/svg">
<path d="M18.5714 37.931C28.8281 37.931 37.1429 29.4399 37.1429 18.9655C37.1429 8.49115 28.8281 0 18.5714 0C8.31471 0 0 8.49115 0 18.9655C0 29.4399 8.31471 37.931 18.5714 37.931Z" fill="#a3a0a0"/>
<path d="M29.3091 6.96557C32.5506 10.4138 33.6987 15.8621 32.0779 20.4138C31.9428 20.7587 31.8078 21.1035 31.5376 21.3104C31.1324 21.6552 30.5246 21.6552 29.9844 21.5863C26.4052 21.0345 24.0415 16.8966 24.7169 13.2414C24.987 11.7932 25.5948 10.3449 25.1896 8.96557C24.7169 7.44833 22.4207 5.5173 24.3117 4.48282C25.7298 3.72419 28.4987 6.13799 29.3091 6.96557Z" fill="white"/>
</svg>
