<svg width="127" height="37" viewBox="0 0 127 37" fill="none" xmlns="http://www.w3.org/2000/svg">
<path d="M50.6406 13.3179C47.2398 13.8549 43.9452 14.4993 40.5975 15.2511C33.9553 16.7548 27.2599 18.2584 20.5113 17.7214C17.323 17.4529 14.1348 16.7548 10.9465 17.1844C7.59877 17.7214 4.25107 19.1713 1.96613 21.6953C-0.371942 24.2729 -0.531356 28.3005 1.06279 31.3614C2.28496 33.6169 4.51676 35.2816 6.96111 35.8723C7.86446 36.0871 8.76781 36.1408 9.67115 36.1408C12.5406 36.2482 15.1444 35.6575 17.695 34.315C20.1925 33.0262 22.318 31.2003 24.4967 29.4282C26.4628 27.8172 27.9507 26.2061 30.4481 25.508C41.4477 22.3397 52.6599 19.6009 63.9251 17.4529C79.3352 14.4993 94.9046 12.4587 110.58 11.8143C114.619 11.6532 118.764 11.5995 122.696 10.4717C124.715 9.88103 127 8.5385 127 6.44416C127 5.58495 126.628 4.77943 126.15 4.08132C124.449 1.61107 121.474 0.375949 118.551 0.161144C115.628 -0.0536596 112.706 0.537052 109.783 1.18146C90.1222 5.31644 70.6737 10.2569 50.6406 13.3179Z" fill="#a3a0a0"/>
<path d="M12.8063 18.7417C9.93686 18.9028 6.96113 19.4935 4.78246 21.4805C2.6038 23.4674 1.80673 27.1728 3.66657 29.3745C4.30422 30.1263 5.20757 30.6634 6.11092 31.0393C10.2557 32.704 15.1444 31.4152 18.8641 28.7838C20.0862 27.9246 21.2553 26.8506 21.8398 25.4544C24.4967 19.0639 16.6854 18.5269 12.8063 18.7417Z" fill="white"/>
</svg>
