<svg id="Layer_1" data-name="Layer 1" xmlns="http://www.w3.org/2000/svg" viewBox="0 0 368.76 327.88"><defs><style>.cls-1{fill:#fff;}.cls-2{fill:#fffffe;}.cls-2,.cls-3{fill-rule:evenodd;}</style></defs><path class="cls-1" d="M375.92,307.07c15.53-5.69,28.84-6.8,31.45,1.82,1,2.54,5.92,17.07-13,26.65-8.3,4.21-17.29,8.51-26.3,12.83-20.66,9.89-27.19,12.46-72.64,29.05C257.76,385.34,183,362.12,140,408.37h0a5.75,5.75,0,0,1-3.79,1.82,108.22,108.22,0,0,1-27.51-.91c-12-2-25.31-6.67-34.73-16.91-7.29-7.92-12.12-19-12-34.37l0,0a5.76,5.76,0,0,1,4.31-5.53c5.43-1.92,61-21.72,99.19-47.36,3.66-3.59,26.8-24.71,54-11.91,11.51,4.24,28.21,6.23,44.53,7.79l8.09.75c56.15-1.83,51.86,25,22.73,27.95-27.53,2.78-66.19,9.43-64,5.86,0,0,64.44,5.08,89.76-7.88C348,316.48,331.54,323.33,375.92,307.07Z" transform="translate(-61.88 -82.8)"/><path class="cls-2" d="M291.83,305.37l.55,21.66,2.07-.22c4.7-.47,10-1.76,14-4.41,2-1.32,4.38-3.55,4.42-6.13,0-2.76-2.69-4.93-4.83-6.19C303.51,307.43,297.33,306.08,291.83,305.37Z" transform="translate(-61.88 -82.8)"/><path class="cls-1" d="M223.16,106.15c42.34-45.58,81.46-12.75,94.43.87,12.61-13.24,49.94-44.63,90.91-4.48a52.6,52.6,0,0,1,6.33,7.11,83.82,83.82,0,0,1,13.69,67.91c-.15.7-1.92,7.16-2.09,7.87-9.68,31.15-38.08,69.25-105.56,110.13a5.77,5.77,0,0,1-6.26.19h0c-67.45-40.8-96-78.83-105.76-110-.18-.7-2-7.16-2.13-7.86-9.11-40.47,12.87-67.65,16-71.26.14-.18.28-.35.43-.52Z" transform="translate(-61.88 -82.8)"/><path class="cls-3" d="M353.15,239.92l19-54.49h54.33l1.6-5.76h-58a3.19,3.19,0,0,0-2.86,2.38l-14.43,41.49-4.36-103.93a2.87,2.87,0,0,0-3-2.43,3.13,3.13,0,0,0-2.76,2.58L325,190.89l-15.29-18.5a2.89,2.89,0,0,0-3.92-.23,4.1,4.1,0,0,0-1,1.48l-23.69,52.8-4.48-106.83a2.87,2.87,0,0,0-3-2.43,3.13,3.13,0,0,0-2.76,2.58L253.43,190l-5.82-9a3,3,0,0,0-2.3-1H207.22l1.63,5.76h35l8.13,12.5a3.46,3.46,0,0,0,1.95,1.62,2.88,2.88,0,0,0,3.41-1.83l14.44-58,4.11,98c1.14,2.25,1.35,6.64,6.68-.87l25.78-57.45,15.67,19a3.3,3.3,0,0,0,1.69,1.17,2.88,2.88,0,0,0,3.41-1.83l14.44-58,4.12,98.27a3.19,3.19,0,0,0,1.93,3.06A2.88,2.88,0,0,0,353.15,239.92Z" transform="translate(-61.88 -82.8)"/></svg>