<svg id="Layer_2" data-name="Layer 2" xmlns="http://www.w3.org/2000/svg" viewBox="0 0 360.13 294.1"><defs><style>.cls-1{fill:#fff;}</style></defs><path class="cls-1" d="M459.26,360.75c-20-32.34-50.41-71.26-96.07-83.69,0,0,94.46,10.45,132.3,124.21,0,0,33.56-147.06-165.47-149.27,0,0,25.06,5.9,34.65,79.61,9.35,72,60.17,98.26,111.28,89.17,8.64,28.71,16.81,64.44,19.9,103.57C498,509.94,501.4,490,506.4,467.67,495.26,433.39,479.62,393.61,459.26,360.75Z" transform="translate(-330.02 -252)"/><path class="cls-1" d="M495.85,524.35c.23,2.88.44,5.78.61,8.69a13,13,0,1,0,26-1.23q-.15-4.37-.21-8.7c-3.5-14.14-8.75-33.68-15.82-55.44C501.4,490,498,509.94,495.85,524.35Z" transform="translate(-330.02 -252)"/><path class="cls-1" d="M510,546.1a13.8,13.8,0,0,1-13.49-17c8.1-34,29.19-111.5,64.41-168.34,20-32.34,50.41-71.26,96.06-83.69,0,0-94.46,10.45-132.3,124.21,0,0-33.56-147.06,165.47-149.27,0,0-25.06,5.9-34.64,79.61-9.36,72-60.17,98.26-111.28,89.17-9.29,30.82-18,69.73-20.51,112.26A13.83,13.83,0,0,1,510,546.1Z" transform="translate(-330.02 -252)"/></svg>