<svg id="Layer_1" data-name="Layer 1" xmlns="http://www.w3.org/2000/svg" viewBox="0 0 50 50"><defs><style>.cls-1,.cls-2{fill:none;}.cls-2{stroke:#fff;stroke-linecap:round;stroke-miterlimit:10;stroke-width:2px;}.cls-3{fill:#fff;}</style></defs><rect class="cls-1" width="50" height="50"/><circle class="cls-2" cx="39" cy="11" r="3"/><path class="cls-2" d="M47,5.5A2.5,2.5,0,0,0,44.5,3H29.62c-1.33,0-2.6-.07-3.34.67L3.55,26.4a1.88,1.88,0,0,0,0,2.67L20.93,46.45a1.9,1.9,0,0,0,2.67,0L46.33,23.72c.74-.74.67-2,.67-3.34Z"/><path class="cls-3" d="M19.11,27.44a4.16,4.16,0,0,0,.83,2.45l4.36-4.36a15.36,15.36,0,0,1-1-2,5.46,5.46,0,0,1-.44-1.67,2.91,2.91,0,0,1,.24-1.48,5.06,5.06,0,0,1,1-1.43,4.87,4.87,0,0,1,1.62-1.09,4.63,4.63,0,0,1,1.78-.35,4.71,4.71,0,0,1,1.79.35,5.59,5.59,0,0,1,1.63,1L32,17.82l.9.9-1.1,1.1a4.77,4.77,0,0,1,1.13,3.11,6.63,6.63,0,0,1-1.15,3.39l-1.39-1.4a3.11,3.11,0,0,0,.06-3.75l-4,4,.72,1.24a6.06,6.06,0,0,1,.49,1.07A5.19,5.19,0,0,1,27.91,29a4.29,4.29,0,0,1-.2,1.6,3.92,3.92,0,0,1-1,1.59A5.24,5.24,0,0,1,25,33.3a4.57,4.57,0,0,1-1.82.32,4.91,4.91,0,0,1-1.85-.41,7.44,7.44,0,0,1-1.78-1.12L18.2,33.44l-.91-.91,1.35-1.35a5.76,5.76,0,0,1-1.47-3.75,5.85,5.85,0,0,1,1.6-3.81l1.4,1.4A3.43,3.43,0,0,0,19.11,27.44Zm2.74,4a2.76,2.76,0,0,0,1.07.29,2.3,2.3,0,0,0,1.08-.2,3.38,3.38,0,0,0,1.07-.75,2.33,2.33,0,0,0,.74-2,3.44,3.44,0,0,0-.29-1.06c-.16-.37-.34-.74-.55-1.13l-4.13,4.13A5.12,5.12,0,0,0,21.85,31.47Zm5.85-12a2.53,2.53,0,0,0-2,.88,2.32,2.32,0,0,0-.59.87,2,2,0,0,0-.12.9,3.25,3.25,0,0,0,.25,1,8.42,8.42,0,0,0,.49,1l3.85-3.84A3.4,3.4,0,0,0,27.7,19.44Z"/></svg>